<?xml version="1.0" encoding="UTF-8"?>
<svg xmlns="http://www.w3.org/2000/svg" xmlns:xlink="http://www.w3.org/1999/xlink" width="300.67pt" height="179.8pt" viewBox="0 0 300.67 179.8" version="1.1">
<defs>
<clipPath id="clip1">
  <path d="M 0 112 L 300.671875 112 L 300.671875 179.800781 L 0 179.800781 Z M 0 112 "/>
</clipPath>
</defs>
<g id="surface1">
<path style=" stroke:none;fill-rule:nonzero;fill:rgb(14.501953%,18.431091%,24.31488%);fill-opacity:1;" d="M 84.730469 65.300781 C 84.730469 69 85.132813 72 85.832031 74.199219 C 86.632813 76.398438 87.632813 78.800781 89.03125 81.398438 C 89.53125 82.199219 89.730469 83 89.730469 83.699219 C 89.730469 84.699219 89.132813 85.699219 87.832031 86.699219 L 81.53125 90.898438 C 80.632813 91.5 79.730469 91.800781 78.933594 91.800781 C 77.933594 91.800781 76.933594 91.300781 75.933594 90.398438 C 74.53125 88.898438 73.332031 87.300781 72.332031 85.699219 C 71.332031 84 70.332031 82.101563 69.230469 79.800781 C 61.433594 89 51.632813 93.601563 39.832031 93.601563 C 31.433594 93.601563 24.730469 91.199219 19.832031 86.398438 C 14.933594 81.601563 12.433594 75.199219 12.433594 67.199219 C 12.433594 58.699219 15.433594 51.800781 21.53125 46.601563 C 27.632813 41.398438 35.730469 38.800781 46.03125 38.800781 C 49.433594 38.800781 52.933594 39.101563 56.632813 39.601563 C 60.332031 40.101563 64.132813 40.898438 68.132813 41.800781 L 68.132813 34.5 C 68.132813 26.898438 66.53125 21.601563 63.433594 18.5 C 60.230469 15.398438 54.832031 13.898438 47.132813 13.898438 C 43.632813 13.898438 40.03125 14.300781 36.332031 15.199219 C 32.632813 16.101563 29.03125 17.199219 25.53125 18.601563 C 23.933594 19.300781 22.730469 19.699219 22.03125 19.898438 C 21.332031 20.101563 20.832031 20.199219 20.433594 20.199219 C 19.03125 20.199219 18.332031 19.199219 18.332031 17.101563 L 18.332031 12.199219 C 18.332031 10.601563 18.53125 9.398438 19.03125 8.699219 C 19.53125 8 20.433594 7.300781 21.832031 6.601563 C 25.332031 4.800781 29.53125 3.300781 34.433594 2.101563 C 39.332031 0.800781 44.53125 0.199219 50.03125 0.199219 C 61.933594 0.199219 70.632813 2.898438 76.230469 8.300781 C 81.730469 13.699219 84.53125 21.898438 84.53125 32.898438 L 84.53125 65.300781 Z M 44.132813 80.5 C 47.433594 80.5 50.832031 79.898438 54.433594 78.699219 C 58.03125 77.5 61.230469 75.300781 63.933594 72.300781 C 65.53125 70.398438 66.730469 68.300781 67.332031 65.898438 C 67.933594 63.5 68.332031 60.601563 68.332031 57.199219 L 68.332031 53 C 65.433594 52.300781 62.332031 51.699219 59.132813 51.300781 C 55.933594 50.898438 52.832031 50.699219 49.730469 50.699219 C 43.03125 50.699219 38.132813 52 34.832031 54.699219 C 31.53125 57.398438 29.933594 61.199219 29.933594 66.199219 C 29.933594 70.898438 31.132813 74.398438 33.632813 76.800781 C 36.03125 79.300781 39.53125 80.5 44.132813 80.5 Z M 124.433594 91.300781 C 122.632813 91.300781 121.433594 91 120.632813 90.300781 C 119.832031 89.699219 119.132813 88.300781 118.53125 86.398438 L 95.03125 9.101563 C 94.433594 7.101563 94.132813 5.800781 94.132813 5.101563 C 94.132813 3.5 94.933594 2.601563 96.53125 2.601563 L 106.332031 2.601563 C 108.230469 2.601563 109.53125 2.898438 110.230469 3.601563 C 111.03125 4.199219 111.632813 5.601563 112.230469 7.5 L 129.03125 73.699219 L 144.632813 7.5 C 145.132813 5.5 145.730469 4.199219 146.53125 3.601563 C 147.332031 3 148.730469 2.601563 150.53125 2.601563 L 158.53125 2.601563 C 160.433594 2.601563 161.730469 2.898438 162.53125 3.601563 C 163.332031 4.199219 164.03125 5.601563 164.433594 7.5 L 180.230469 74.5 L 197.53125 7.5 C 198.132813 5.5 198.832031 4.199219 199.53125 3.601563 C 200.332031 3 201.632813 2.601563 203.433594 2.601563 L 212.730469 2.601563 C 214.332031 2.601563 215.230469 3.398438 215.230469 5.101563 C 215.230469 5.601563 215.132813 6.101563 215.03125 6.699219 C 214.933594 7.300781 214.730469 8.101563 214.332031 9.199219 L 190.230469 86.5 C 189.632813 88.5 188.933594 89.800781 188.132813 90.398438 C 187.332031 91 186.03125 91.398438 184.332031 91.398438 L 175.730469 91.398438 C 173.832031 91.398438 172.53125 91.101563 171.730469 90.398438 C 170.933594 89.699219 170.230469 88.398438 169.832031 86.398438 L 154.332031 21.898438 L 138.933594 86.300781 C 138.433594 88.300781 137.832031 89.601563 137.03125 90.300781 C 136.230469 91 134.832031 91.300781 133.03125 91.300781 Z M 252.933594 94 C 247.730469 94 242.53125 93.398438 237.53125 92.199219 C 232.53125 91 228.632813 89.699219 226.03125 88.199219 C 224.433594 87.300781 223.332031 86.300781 222.933594 85.398438 C 222.53125 84.5 222.332031 83.5 222.332031 82.601563 L 222.332031 77.5 C 222.332031 75.398438 223.132813 74.398438 224.632813 74.398438 C 225.230469 74.398438 225.832031 74.5 226.433594 74.699219 C 227.03125 74.898438 227.933594 75.300781 228.933594 75.699219 C 232.332031 77.199219 236.03125 78.398438 239.933594 79.199219 C 243.933594 80 247.832031 80.398438 251.832031 80.398438 C 258.132813 80.398438 263.03125 79.300781 266.433594 77.101563 C 269.832031 74.898438 271.632813 71.699219 271.632813 67.601563 C 271.632813 64.800781 270.730469 62.5 268.933594 60.601563 C 267.132813 58.699219 263.730469 57 258.832031 55.398438 L 244.332031 50.898438 C 237.03125 48.601563 231.632813 45.199219 228.332031 40.699219 C 225.03125 36.300781 223.332031 31.398438 223.332031 26.199219 C 223.332031 22 224.230469 18.300781 226.03125 15.101563 C 227.832031 11.898438 230.230469 9.101563 233.230469 6.898438 C 236.230469 4.601563 239.632813 2.898438 243.632813 1.699219 C 247.632813 0.5 251.832031 0 256.230469 0 C 258.433594 0 260.730469 0.101563 262.933594 0.398438 C 265.230469 0.699219 267.332031 1.101563 269.433594 1.5 C 271.433594 2 273.332031 2.5 275.132813 3.101563 C 276.933594 3.699219 278.332031 4.300781 279.332031 4.898438 C 280.730469 5.699219 281.730469 6.5 282.332031 7.398438 C 282.933594 8.199219 283.230469 9.300781 283.230469 10.699219 L 283.230469 15.398438 C 283.230469 17.5 282.433594 18.601563 280.933594 18.601563 C 280.132813 18.601563 278.832031 18.199219 277.132813 17.398438 C 271.433594 14.800781 265.03125 13.5 257.933594 13.5 C 252.230469 13.5 247.730469 14.398438 244.632813 16.300781 C 241.53125 18.199219 239.933594 21.101563 239.933594 25.199219 C 239.933594 28 240.933594 30.398438 242.933594 32.300781 C 244.933594 34.199219 248.632813 36.101563 253.933594 37.800781 L 268.132813 42.300781 C 275.332031 44.601563 280.53125 47.800781 283.632813 51.898438 C 286.730469 56 288.230469 60.699219 288.230469 65.898438 C 288.230469 70.199219 287.332031 74.101563 285.632813 77.5 C 283.832031 80.898438 281.433594 83.898438 278.332031 86.300781 C 275.230469 88.800781 271.53125 90.601563 267.230469 91.898438 C 262.730469 93.300781 258.03125 94 252.933594 94 "/>
<g clip-path="url(#clip1)" clip-rule="nonzero">
<path style=" stroke:none;fill-rule:nonzero;fill:rgb(100%,59.959412%,0%);fill-opacity:1;" d="M 271.832031 142.601563 C 238.933594 166.898438 191.132813 179.800781 150.03125 179.800781 C 92.433594 179.800781 40.53125 158.5 1.332031 123.101563 C -1.769531 120.300781 1.03125 116.5 4.730469 118.699219 C 47.132813 143.300781 99.433594 158.199219 153.53125 158.199219 C 190.03125 158.199219 230.132813 150.601563 267.03125 135 C 272.53125 132.5 277.230469 138.601563 271.832031 142.601563 Z M 285.53125 127 C 281.332031 121.601563 257.730469 124.398438 247.03125 125.699219 C 243.832031 126.101563 243.332031 123.300781 246.230469 121.199219 C 265.03125 108 295.933594 111.800781 299.53125 116.199219 C 303.132813 120.699219 298.53125 151.601563 280.933594 166.398438 C 278.230469 168.699219 275.632813 167.5 276.832031 164.5 C 280.832031 154.601563 289.730469 132.300781 285.53125 127 "/>
</g>
</g>
</svg>
